HIERARCHY
ROOT pelvis
{
  OFFSET 0 100 0
  CHANNELS 6 Xposition Yposition Zposition Zrotation Xrotation Yrotation
  JOINT pelvis_right_femur
  {
    OFFSET -10.78128 -3.44521 -0.5502486
    CHANNELS 3 Zrotation Xrotation Yrotation
    JOINT right_femur_tibia
    {
      OFFSET -0.8047443 -44.0398 -0.1307829
      CHANNELS 3 Zrotation Xrotation Yrotation
      JOINT right_tibia_foot
      {
        OFFSET 3.006224 -47.83518 -5
        CHANNELS 3 Zrotation Xrotation Yrotation
        End Site
        {
          OFFSET 0 -5 15
        }
      }
    }
  }
  JOINT pelvis_left_femur
  {
    OFFSET 10.78128 -3.44521 -0.5502486
    CHANNELS 3 Zrotation Xrotation Yrotation
    JOINT left_femur_tibia
    {
      OFFSET 0.8047443 -44.0398 -0.1307829
      CHANNELS 3 Zrotation Xrotation Yrotation
      JOINT left_tibia_foot
      {
        OFFSET -4.370144 -48.10324 -4.275266
        CHANNELS 3 Zrotation Xrotation Yrotation
        End Site
        {
          OFFSET 0 -5 15
        }
      }
    }
  }
  JOINT pelvis_spine1
  {
    OFFSET 0 6.468898 -3.129235
    CHANNELS 3 Zrotation Xrotation Yrotation
    JOINT spine1
    {
      OFFSET 0 23.15396 4.99043
      CHANNELS 3 Zrotation Xrotation Yrotation
      JOINT spine2
      {
        OFFSET 0 20.79997 -5.064912
        CHANNELS 3 Zrotation Xrotation Yrotation
        JOINT neck
        {
          OFFSET 0 14.38658 9.616178
          CHANNELS 3 Zrotation Xrotation Yrotation
          End Site
          {
            OFFSET 0 20 0
          }
        }
      }
      JOINT right_manubrium
      {
        OFFSET -5.722621 16.35077 3.967754
        CHANNELS 3 Zrotation Xrotation Yrotation
        JOINT right_clavicle
        {
          OFFSET -13.16364 1.694482 -4.693211
          CHANNELS 3 Zrotation Xrotation Yrotation
          JOINT right_humerus
          {
            OFFSET -28.5034 -0.3100689 -2.792744
            CHANNELS 3 Zrotation Xrotation Yrotation
            JOINT right_radius
            {
              OFFSET -25.15693 0.02248979 -1.271978
              CHANNELS 3 Zrotation Xrotation Yrotation
              End Site
              {
                OFFSET -15 0 0
              }
            }
          }
        }
      }
      JOINT left_manubrium
      {
        OFFSET 5.722621 16.35077 3.967754
        CHANNELS 3 Zrotation Xrotation Yrotation
        JOINT left_clavicle
        {
          OFFSET 13.16364 1.694482 -4.693211
          CHANNELS 3 Zrotation Xrotation Yrotation
          JOINT left_humerus
          {
            OFFSET 29.39168 -1.063119 -2.237045
            CHANNELS 3 Zrotation Xrotation Yrotation
            JOINT left_radius
            {
              OFFSET 24.59957 -0.9528479 0.9047498
              CHANNELS 3 Zrotation Xrotation Yrotation
              End Site
              {
                OFFSET 15 -0 -0
              }
            }
          }
        }
      }
    }
  }
}
MOTION
Frames: 13
Frame Time: 0.0416666666667
-1031.459 61.6659 218.7175 9.172848 11.55356 136.3833 4.830819 10.57373 -1.749993 -0 17.99604 -0 -15.80214 3.280935 -1.586022 -0.7176871 -5.6678 -4.752423 -0 30.32746 -0 7.632909 -3.661997 20.56744 0.4420563 -2.601738 7.630434 -1.293337 14.35738 -2.985184 2.212695 21.53259 2.065555 0.1119593 -16.89348 5.619383 -1.4289 -28.72806 12.15602 85.52759 20.46035 -2.901836 -0 0 28.80889 -25.54126 15.84703 17.12035 2.262022 -17.86029 -5.29641 -96.78534 12.54441 37.57855 -0 0 1.276038 5.359071 17.55013 6.643131
-1027.552 61.47142 213.782 9.30214 11.5809 135.7546 4.326552 11.74696 -1.593104 -0 19.68749 -0 -15.7704 3.606617 -1.428168 -0.8373305 -5.687528 -5.30859 -0 28.31751 -0 7.191966 -3.788493 20.89935 0.3997118 -2.591331 7.690511 -1.399359 14.23802 -2.803549 2.274079 21.611 2.0331 0.08075346 -16.73441 5.680085 -1.365921 -28.74804 12.11071 85.20417 20.59422 -2.336892 -0 0 29.15005 -25.63458 15.90262 17.29555 2.250469 -17.55028 -5.141085 -97.06994 12.70218 37.89774 -0 0 1.906739 5.154625 17.71078 6.88212
-1023.566 61.34357 208.7965 9.437562 11.66468 135.1501 3.808252 12.54602 -1.516975 -0 21.58571 -0 -15.87624 4.481225 -1.146357 -1.109018 -5.300868 -5.919408 -0 26.91643 -0 6.867683 -4.015028 21.27695 0.3504398 -2.559332 7.701684 -1.475036 14.12281 -2.6643 2.315074 21.71121 2.046456 0.09640982 -16.6168 5.732331 -1.298587 -28.68093 12.07294 84.97096 20.72509 -1.962042 -0 0 29.26325 -25.70692 15.87033 17.38417 2.268394 -17.32732 -5.035859 -97.26643 12.85507 38.00069 -0 0 2.38395 5.035591 17.82993 6.999808
-1019.499 61.31965 203.7807 9.593739 11.80108 134.5706 3.320497 12.92256 -1.539266 -0 23.62159 -0 -16.13369 5.856494 -0.7481923 -1.49608 -4.5493 -6.536112 -0 26.14868 -0 6.667535 -4.345692 21.68248 0.2976374 -2.506842 7.663168 -1.515766 14.01777 -2.573964 2.334623 21.82693 2.102682 0.1551456 -16.54709 5.774194 -1.231299 -28.53241 12.04477 84.8392 20.84608 -1.792216 -0 0 29.14667 -25.75408 15.75674 17.38533 2.312603 -17.19916 -4.984229 -97.36514 12.99653 37.88782 -0 0 2.688758 5.004075 17.90274 6.996569
-1015.352 61.42549 198.7648 9.775539 11.96696 134.0195 2.908397 12.82626 -1.675516 -0 25.69593 -0 -16.53366 7.609908 -0.2516186 -1.951434 -3.482889 -7.105146 -0 25.9372 -0 6.592369 -4.778382 22.08861 0.2444089 -2.436161 7.576525 -1.519693 13.92716 -2.535945 2.333056 21.95178 2.197191 0.2516092 -16.52794 5.804906 -1.168239 -28.31041 12.02718 84.81422 20.9518 -1.831298 -0 0 28.80933 -25.77392 15.57219 17.3022 2.379886 -17.16865 -4.986349 -97.3609 13.1213 37.56685 -0 0 2.807716 5.058634 17.92809 6.876918
-1011.136 61.67101 193.7842 9.975699 12.12644 133.5018 2.607002 12.2157 -1.934292 -0 27.67716 -0 -17.0425 9.563809 0.314456 -2.427576 -2.156846 -7.577479 -0 26.13418 -0 6.638977 -5.303151 22.4621 0.1933268 -2.350656 7.445446 -1.487569 13.85352 -2.550768 2.311797 22.07983 2.324392 0.3796157 -16.55855 5.824647 -1.113094 -28.02433 12.02013 84.89594 21.0384 -2.073582 -0 0 28.26908 -25.76617 15.32919 17.14093 2.467359 -17.23464 -5.03964 -97.25281 13.22542 37.05136 -0 0 2.732506 5.195088 17.90803 6.648322
-1006.863 62.04733 188.8745 10.17523 12.24007 133.0229 2.432551 11.07208 -2.313053 -0 29.40213 -0 -17.6046 11.51463 0.9104799 -2.885042 -0.6307123 -7.916379 -0 26.55966 -0 6.801851 -5.902845 22.76927 0.1463479 -2.2546 7.275483 -1.422371 13.79793 -2.616548 2.273028 22.20576 2.478128 0.5326408 -16.63521 5.834249 -1.068909 -27.68472 12.0228 85.07965 21.10341 -2.505573 -0 0 27.55071 -25.73209 15.04117 16.90973 2.572536 -17.39277 -5.139466 -97.04405 13.3061 36.35967 -0 0 2.459661 5.407209 17.84698 6.320372
-1002.547 62.52644 184.0653 10.34668 12.27387 132.5867 2.378829 9.412547 -2.796769 -0 30.68552 -0 -18.1495 13.26625 1.489205 -3.297655 1.031212 -8.10189 -0 27.04047 -0 7.073358 -6.555444 22.98139 0.1048474 -2.152988 7.073825 -1.32882 13.76046 -2.729458 2.219421 22.3249 2.651908 0.7040735 -16.752 5.83488 -1.038011 -27.30322 12.03377 85.35673 21.14545 -3.107507 -0 0 26.68465 -25.67407 14.72171 16.61827 2.69316 -17.63615 -5.279713 -96.7415 13.3614 35.51459 -0 0 1.990817 5.687115 17.75093 5.904438
-998.1945 63.06396 179.3754 10.46 12.20642 132.1936 2.420275 7.299196 -3.359959 -0 31.34253 -0 -18.60328 14.6615 2.002257 -3.653947 2.760103 -8.131548 -0 27.4435 -0 7.442363 -7.237123 23.07891 0.06971653 -2.051317 6.8491 -1.212896 13.74064 -2.884089 2.153911 22.43311 2.838991 0.8873064 -16.90146 5.827769 -1.021934 -26.89278 12.05137 85.71519 21.16404 -3.854315 -0 0 25.70618 -25.59531 14.38422 16.27743 2.826897 -17.95572 -5.45322 -96.35575 13.38995 34.54383 -0 0 1.333767 6.025353 17.62679 5.413776
-993.8092 63.60518 174.8103 10.49005 12.03272 131.8387 2.521072 4.839803 -3.970824 -0 31.22525 -0 -18.90275 15.60621 2.409195 -3.954992 4.485117 -8.017865 -0 27.69873 -0 7.892252 -7.924811 23.05396 0.04148216 -1.955276 6.611175 -1.081402 13.73774 -3.073643 2.079541 22.52674 3.032422 1.075772 -17.07506 5.813973 -1.021322 -26.46792 12.07383 86.13991 21.15947 -4.716049 -0 0 24.65499 -25.49965 14.04176 15.89935 2.970954 -18.34016 -5.652089 -95.90125 13.3908 33.48067 -0 0 0.5042782 6.410738 17.48174 4.863908
-989.3856 64.09385 170.3621 10.42403 11.76395 131.5113 2.647249 2.177923 -4.594978 -0 30.26557 -0 -19.00875 16.08035 2.685551 -4.209559 6.13851 -7.783891 -0 27.8076 -0 8.400059 -8.597027 22.91127 0.02041575 -1.870301 6.37084 -0.9415265 13.75103 -3.290035 1.999337 22.60256 3.225114 1.263016 -17.26374 5.794229 -1.035791 -26.04472 12.09958 86.61278 21.13269 -5.658066 -0 0 23.57455 -25.39151 13.70685 15.49761 3.121728 -18.7757 -5.867922 -95.39638 13.3634 32.36454 0 0 -0.4717179 6.830096 17.32284 4.273037
-984.9118 64.48189 166.0126 10.26628 11.42308 131.1954 2.777613 -0.5268897 -5.196931 -0 28.5094 -0 -18.91404 16.13316 2.825875 -4.428111 7.661824 -7.458419 -0 27.83454 -0 8.938328 -9.232418 22.66796 0.006620316 -1.801034 6.139314 -0.8004039 13.77981 -3.523976 1.91621 22.65793 3.410033 1.442841 -17.4583 5.768896 -1.063809 -25.64047 12.12733 87.11294 21.08547 -6.641369 -0 0 22.51097 -25.27589 13.39123 15.08721 3.27457 -19.24582 -6.092063 -94.86344 13.30776 31.24084 0 0 -1.556322 7.268109 17.15659 3.662264
-980.3723 64.73795 161.7386 10.03828 11.03768 130.8721 2.909546 -3.123419 -5.739801 -0 26.12502 -0 -18.64307 15.86283 2.840513 -4.61757 9.010267 -7.072054 -0 27.88373 -0 9.479986 -9.806702 22.35203 9.280784e-05 -1.750762 5.927545 -0.6646612 13.82331 -3.765171 1.832893 22.69098 3.580455 1.609502 -17.64989 5.737992 -1.102675 -25.27286 12.15614 87.61725 21.02039 -7.623537 -0 0 21.51099 -25.1583 13.10553 14.68447 3.423722 -19.73135 -6.315862 -94.3279 13.22479 30.15956 0 0 -2.699247 7.707437 16.98872 3.05534
